<mxfile host="app.diagrams.net" modified="2022-03-31T10:58:40.082Z" agent="5.0 (Windows NT 10.0; Win64; x64) AppleWebKit/537.36 (KHTML, like Gecko) Chrome/98.0.4758.109 Safari/537.36 OPR/84.0.4316.42" etag="YrpmCFwaby-tJS6TMdVr" version="17.3.0" type="github">
  <diagram id="82QFJBDEPz6zvyBv5BAl" name="Page-1">
    <mxGraphModel dx="1022" dy="548" grid="1" gridSize="10" guides="1" tooltips="1" connect="1" arrows="1" fold="1" page="1" pageScale="1" pageWidth="827" pageHeight="1169" math="0" shadow="0">
      <root>
        <mxCell id="0" />
        <mxCell id="1" parent="0" />
        <mxCell id="1HBcHDyOb9saK0gviChO-1" value="" style="verticalLabelPosition=bottom;verticalAlign=top;html=1;shadow=0;dashed=0;strokeWidth=1;shape=mxgraph.android.phone2;strokeColor=#c0c0c0;" vertex="1" parent="1">
          <mxGeometry x="40" y="30" width="200" height="390" as="geometry" />
        </mxCell>
        <mxCell id="1HBcHDyOb9saK0gviChO-2" value="" style="verticalLabelPosition=bottom;verticalAlign=top;html=1;shadow=0;dashed=0;strokeWidth=1;shape=mxgraph.android.phone2;strokeColor=#c0c0c0;" vertex="1" parent="1">
          <mxGeometry x="270" y="30" width="200" height="390" as="geometry" />
        </mxCell>
      </root>
    </mxGraphModel>
  </diagram>
</mxfile>
